<?xml version="1.0" encoding="UTF-8"?> <svg xmlns="http://www.w3.org/2000/svg" id="Layer_1" version="1.1" viewBox="0 0 1476.4 395.3"><!-- Generator: Adobe Illustrator 29.4.0, SVG Export Plug-In . SVG Version: 2.1.0 Build 152) --><defs><style> .st0 { fill: #111; } .st1 { fill: #fff; } </style></defs><rect class="st0" x="55.9" y="50" width="542.1" height="268.8"></rect><g><path class="st1" d="M733.1,91.9h19.6v36.5l34.5-36.5h25.7l-39.2,41.2,42.6,47.3h-27l-35.8-41.9v41.9h-19.6l-.7-88.5Z"></path><path class="st1" d="M822.3,91.9h34.5c18.2,0,33.1,6.1,33.1,27,.7,11.5-7.4,22.3-18.9,24.3l22.3,37.2h-23.6l-18.2-35.1h-9.5v35.1h-19.6v-88.5ZM841.9,128.4h11.5c6.8,0,16.2,0,16.2-10.1s-8.1-10.1-14.9-10.1h-12.8v20.3Z"></path><path class="st1" d="M904.1,91.9h60.1v18.2h-40.5v16.2h38.5v17.6h-38.5v18.2h43.2v18.2h-62.2l-.7-88.5Z"></path><path class="st1" d="M1010.8,91.9h16.2l38.5,88.5h-21.6l-7.4-18.9h-34.5l-7.4,18.9h-21.6l37.8-88.5ZM1018.3,117.6l-10.8,27.7h21.6l-10.8-27.7Z"></path><path class="st1" d="M1079.8,108.8h-25v-17.6h69.6v16.9h-25v70.9h-19.6v-70.3h0Z"></path><path class="st1" d="M1133.8,91.9h19.6v88.5h-19.6v-88.5Z"></path><path class="st1" d="M1162.2,91.9h22.3l21.6,58.1h0l22.3-58.1h21.6l-36.5,88.5h-15.5l-35.8-88.5Z"></path><path class="st1" d="M1280.4,91.9h16.2l38.5,88.5h-21.6l-7.4-18.9h-34.5l-7.4,18.9h-21.6l37.8-88.5ZM1287.9,117.6l-10.8,27.7h21.6l-10.8-27.7Z"></path><path class="st1" d="M817.6,285.8c-11.5,6.1-24.3,8.8-37.2,8.1-27.7,0-47.3-18.2-47.3-46.6s20.3-46.6,47.3-46.6c12.8-.7,25,3.4,35.1,11.5l-13.5,14.9c-5.4-6.1-13.5-8.8-21.6-8.1-14.9-.7-27,10.8-27.7,25.7v2.7c-.7,14.9,10.1,27,25,28.4h2.7c6.1,0,12.8-1.4,18.2-4.1v-14.2h-15.5v-18.2h34.5v46.6Z"></path><path class="st1" d="M856.1,254.1l-33.1-50.7h24.3l18.9,33.1,19.6-33.1h23l-33.1,50.7v37.8h-19.6v-37.8Z"></path><path class="st1" d="M915.6,203.4h29.7l20.3,57.4h0l20.3-57.4h29.1v88.5h-19.6v-67.6h0l-23,67.6h-14.9l-22.3-67.6h0v67.6h-19.6v-88.5Z"></path><path class="st1" d="M1033.1,203.4h26.4l37.8,61.5h0v-61.5h19.6v88.5h-25.7l-38.5-62.8h0v62.8h-19.6v-88.5Z"></path><path class="st1" d="M1164.2,203.4h16.2l38.5,88.5h-21.6l-7.4-18.9h-34.5l-7.4,18.9h-21.6l37.8-88.5ZM1171.7,229.1l-10.8,27.7h21.6l-10.8-27.7Z"></path><path class="st1" d="M1271,225c-3.4-4.1-8.8-6.1-14.2-6.1s-12.8,2.7-12.8,8.8c0,16.2,40.5,5.4,40.5,36.5s-15.5,29.1-33.8,29.1-21.6-3.4-29.7-10.8l14.2-14.9c4.1,5.4,10.1,8.1,16.9,8.1s13.5-2.7,13.5-9.5c0-16.2-41.2-7.4-41.2-37.2s16.2-28.4,33.8-28.4,19.6,2.7,27,9.5l-14.2,14.9Z"></path><path class="st1" d="M1298.7,203.4h19.6v88.5h-19.6v-88.5Z"></path><path class="st1" d="M1336.5,203.4h60.1v18.2h-40.5v16.2h38.5v18.2h-38.5v18.2h42.6v18.2h-62.2v-89.2Z"></path><path class="st1" d="M1431.8,221h-25v-16.9h69.6v16.9h-25v70.9h-19.6v-70.9h0Z"></path><path class="st1" d="M325.7,143.9h-36.5v27h35.8c16.2.7,16.2-27,.7-27Z"></path><path class="st1" d="M331.8,214.9h-42.6v35.1h42.6c19.6,0,19.6-35.1,0-35.1Z"></path><path class="st1" d="M571,0H0v395.3h571c.1,0,.2,0,.4,0v-40h40v-40h40c0-.1,0-.3,0-.4V0h-80.4ZM234.5,295.3H105.4V101.4h47.3v148h81.8v45.9ZM331.8,295.3h-89.2V101.4h89.9c47.3,0,69.6,60.8,32.4,87.8,17.6,7.4,28.4,25,29.1,43.9,0,30.4-21.6,62.2-62.2,62.2ZM473.7,297.3c-31.8,0-74.3-19.6-74.3-68.9h48c0,18.9,16.2,23,27,23,15.5,0,27.7-4.7,27.7-15.5s-22.3-14.2-29.1-15.5c-31.1-3.4-68.2-10.1-72.3-54.7-2-42.6,32.4-67.6,73.7-67.6s72.3,19.6,72.3,64.2h-47.3c0-12.8-10.8-20.3-25-20.3s-25,6.1-25,16.9,23,14.9,29.1,15.5c27.7,3.4,62.2,10.8,70.3,45.9.7,4.7,1.4,8.8,1.4,13.5-.7,40.5-39.9,63.5-76.4,63.5ZM548.7,102.7v16.9h-2.7v-16.9h-6.1v-2h14.9v2h-6.1ZM577.7,118.9h-2.7v-16.2l-6.8,16.2h-1.4l-6.8-16.2v16.2h-2.7v-18.9h4.1l6.1,14.9,6.1-14.9h4.1v18.9Z"></path></g></svg> 